P2
# 8-bit pgm - grayscale
99 37
255
  0   0   0   0   0   0   0   0   0   0   0   0   0   0   0   0   0   0   0   0   0   0   0   0
  0   0   0   0   0   0   0   0   0   0   0   0   0   0   0   0   0   0   0   0   0   0   0   0
  0   0   0   0   0   0   0   0   0   0   0   0   0   0   0   0   0   0   0   0   0   0   0   0
  0   0   0   0   0   0   0   0   0   0   0   0   0   0   0   0   0   0   0   0   0   0   0   0
  0   0   0
255 255 255 255 255 255 255 255 255 255 255 255 255 255 255 255 255 255 255 255 255 255 255 255
255 255 255 255 255 255 255 255 255 255 255 255 255 255 255 255 255 255 255 255 255 255 255 255
255 255 255 255 255 255 255 255 255 255 255 255 255 255 255 255 255 255 255 255 255 255 255 255
255 255 255 255 255 255 255 255 255 255 255 255 255 255 255 255 255 255 255 255 255 255 255 255
255 255 255
  0   0   0   0   0   0   0   0   0   0   0   0   0   0   0   0   0   0   0   0   0   0   0   0
  0   0   0   0   0   0   0   0   0   0   0   0   0   0   0   0   0   0   0   0   0   0   0   0
  0   0   0   0   0   0   0   0   0   0   0   0   0   0   0   0   0   0   0   0   0   0   0   0
  0   0   0   0   0   0   0   0   0   0   0   0   0   0   0 255   0   0   0   0   0   0   0   0
  0   0   0
255   0 255 255 255   0 255 255 255 255 255 255 255 255 255 255 255 255 255 255 255 255 255 255
255 255 255 255 255 255 255 255 255 255 255 255 255 255 255 255 255 255 255 255 255 255 255 255
255 255 255 255 255 255 255 255 255 255 255 255 255 255 255 255 255 255 255 255 255 255 255 255
255 255 255 255 255   0 255 255 255 255 255 255 255 255 255 255 255 255 255 255 255 255 255 255
255   0 255
255   0 255 255 255   0 255 255   0   0   0   0   0   0   0 255   0   0   0   0   0   0   0   0
  0   0   0   0   0   0   0   0   0   0   0   0   0   0   0   0   0   0   0   0   0   0   0   0
  0   0   0   0   0   0   0   0   0   0   0   0   0   0   0   0   0   0   0   0   0   0   0   0
  0   0   0 255   0   0   0   0   0   0   0   0   0   0   0 255   0   0   0   0   0   0   0   0
  0   0   0
255   0 255 255 255   0 255 255 255   0 255 255 255   0 255 255 255 255 255 255 255 255 255 255
255   0 255 255 255   0 255 255 255 255 255 255 255 255 255 255 255 255 255 255 255 255 255 255
255 255 255 255 255 255 255 255 255 255 255 255 255 255 255 255 255 255 255 255 255 255 255 255
255 255 255 255 255   0 255 255 255 255 255 255 255   0 255 255 255   0 255 255 255 255 255 255
255   0 255
255   0 255 255 255   0 255 255 255   0   0   0   0   0 255 255   0   0   0   0   0   0   0   0
  0   0   0   0   0   0   0   0   0   0   0   0   0   0   0   0   0   0   0   0   0   0   0   0
  0   0   0   0   0   0   0   0   0   0   0   0   0   0   0   0   0   0   0   0   0   0   0   0
  0   0   0 255   0   0   0   0   0   0   0   0   0   0   0 255 255   0 255 255   0   0   0 255
255   0 255
255   0 255 255 255   0 255 255 255 255 255 255 255   0 255 255 255 255 255 255 255 255 255 255
255   0 255 255 255   0 255 255 255 255 255 255 255 255 255 255 255 255 255 255 255 255 255 255
255 255 255 255 255 255 255 255 255 255 255 255 255 255 255 255 255 255 255 255 255   0 255 255
255 255 255 255 255   0 255 255 255 255 255 255 255   0 255 255 255   0 255 255 255   0 255 255
255   0 255
255   0 255 255 255   0 255 255 255 255 255 255 255   0 255 255   0   0   0   0   0   0   0   0
  0   0   0   0   0   0   0   0   0   0   0   0   0   0   0   0   0   0   0   0   0   0   0   0
  0   0   0   0   0   0   0   0   0   0   0   0   0   0   0   0   0   0   0   0   0   0   0   0
  0   0   0 255   0   0   0   0   0   0   0   0   0   0   0 255 255   0 255 255   0   0   0 255
255   0 255
255   0 255 255 255   0 255 255 255 255 255 255 255   0 255 255 255   0 255 255 255 255 255 255
255   0 255 255 255   0 255 255 255 255 255 255 255 255 255 255 255 255 255 255 255 255 255 255
255 255 255 255 255 255 255 255 255 255 255 255 255 255 255 255 255 255 255 255 255   0 255 255
255 255 255 255 255   0 255 255 255   0 255 255 255   0 255 255 255   0 255 255 255   0 255 255
255   0 255
255   0 255 255 255   0 255 255 255 255 255 255 255   0 255 255 255   0 255 255   0   0   0 255
  0   0   0   0   0   0   0   0   0   0   0   0   0   0   0   0   0   0   0   0   0   0   0   0
  0   0   0   0   0   0   0 255   0   0   0   0   0   0   0   0   0   0   0   0   0   0   0   0
  0   0   0 255 255   0 255 255 255   0   0   0   0   0 255 255 255   0   0   0   0   0 255 255
255   0 255
255   0 255 255 255   0 255 255 255 255 255 255 255   0 255 255 255   0 255 255 255 255 255 255
255   0 255 255 255   0 255 255 255   0 255 255 255 255 255 255 255 255 255 255 255   0 255 255
255 255 255 255 255 255 255 255 255 255 255 255 255 255 255 255 255 255 255 255 255   0 255 255
255   0 255 255 255   0 255 255 255   0 255 255 255 255 255 255 255 255 255 255 255   0 255 255
255   0 255
255   0 255 255 255   0 255 255 255 255 255 255 255   0 255 255 255   0 255 255   0   0   0 255
255   0   0   0   0   0 255 255 255   0 255 255   0   0   0   0   0   0   0 255   0   0   0   0
  0   0   0   0   0   0   0 255   0   0   0   0   0   0   0   0   0   0   0   0   0   0   0   0
  0   0   0 255 255   0   0   0   0   0 255 255 255 255 255 255 255 255 255 255 255   0   0   0
  0   0 255
255   0 255 255 255   0 255 255 255 255 255 255 255   0 255 255 255   0 255 255 255   0 255 255
255 255 255 255 255   0 255 255 255   0 255 255 255   0 255 255 255   0 255 255 255   0 255 255
255   0 255 255 255   0 255 255 255 255 255 255 255   0 255 255 255 255 255 255 255   0 255 255
255   0 255 255 255   0 255 255 255 255 255 255 255 255 255 255 255 255 255 255 255   0 255 255
255 255 255
255   0 255 255 255   0 255 255 255 255 255 255 255   0 255 255 255   0   0   0   0   0 255 255
255 255 255 255 255   0   0   0   0   0 255 255 255   0   0   0   0   0 255 255 255   0 255 255
255   0   0   0   0   0 255 255   0   0   0   0   0   0   0   0   0   0   0   0   0   0   0   0
  0   0   0 255 255   0 255 255 255 255 255 255 255 255 255 255 255 255 255 255 255   0 255 255
255 255 255
255   0 255 255 255   0 255 255 255 255 255 255 255   0 255 255 255 255 255 255 255   0 255 255
255 255 255 255 255 255 255 255 255   0 255 255 255 255 255 255 255   0 255 255 255   0 255 255
255   0 255 255 255 255 255 255 255 255 255 255 255   0 255 255 255   0 255 255 255   0 255 255
255   0 255 255 255   0 255 255 255 255 255 255 255 255 255 255 255 255 255 255 255   0 255 255
255 255 255
255   0 255 255 255   0 255 255 255 255 255 255 255   0 255 255 255 255 255 255 255   0 255 255
255 255 255 255 255 255 255 255 255   0 255 255 255 255 255 255 255   0 255 255 255   0   0   0
  0   0 255 255 255 255 255 255   0   0   0   0   0   0   0   0   0   0   0   0   0   0   0   0
  0   0   0 255 255   0 255 255 255 255 255 255 255 255 255 255 255 255 255 255 255   0 255 255
255 255 255
255   0 255 255 255   0 255 255 255 255 255 255 255   0 255 255 255 255 255 255 255   0 255 255
255 255 255 255 255 255 255 255 255   0 255 255 255 255 255 255 255   0 255 255 255   0 255 255
255 255 255 255 255 255 255 255 255   0 255 255 255   0 255 255 255   0 255 255 255   0 255 255
255   0 255 255 255   0 255 255 255 255 255 255 255 255 255 255 255 255 255 255 255   0 255 255
255 255 255
255   0 255 255 255   0 255 255 255 255 255 255 255   0 255 255 255 255 255 255 255   0 255 255
255 255 255 255 255 255 255 255 255   0 255 255 255 255 255 255 255   0   0   0   0   0 255 255
255 255 255 255 255 255 255 255 255   0   0   0   0   0 255 255 255   0 255 255 255   0   0   0
  0   0 255 255 255   0 255 255 255 255 255 255 255 255 255 255 255 255 255 255 255   0 255 255
255 255 255
255   0 255 255 255   0 255 255 255 255 255 255 255   0 255 255 255 255 255 255 255   0 255 255
255 255 255 255 255 255 255 255 255   0 255 255 255 255 255 255 255   0 255 255 255 255 255 255
255 255 255 255 255 255 255 255 255 255 255 255 255   0 255 255 255   0 255 255 255   0 255 255
255 255 255 255 255   0 255 255 255 255 255 255 255 255 255 255 255 255 255 255 255   0 255 255
255 255 255
255   0 255 255 255   0 255 255 255 255 255 255 255   0 255 255 255 255 255 255 255   0 255 255
255 255 255 255 255 255 255 255 255   0   0   0   0   0   0   0   0   0 255 255 255 255 255 255
255 255 255 255 255 255 255 255 255 255 255 255 255   0 255 255 255   0   0   0   0   0 255 255
255 255 255 255 255   0 255 255 255 255 255 255 255 255 255 255 255 255 255 255 255   0 255 255
255 255 255
255   0 255 255 255   0 255 255 255 255 255 255 255   0 255 255 255 255 255 255 255   0 255 255
255 255 255 255 255 255 255 255 255 255 255 255 255 255 255 255 255   0 255 255 255 255 255 255
255 255 255 255 255 255 255 255 255 255 255 255 255   0 255 255 255   0 255 255 255 255 255 255
255 255 255 255 255   0 255 255 255 255 255 255 255 255 255 255 255 255 255 255 255   0 255 255
255 255 255
255   0 255 255 255   0 255 255 255 255 255 255 255   0 255 255 255 255 255 255 255   0 255 255
255 255 255 255 255 255 255 255 255 255 255 255 255 255 255 255 255   0 255 255 255 255 255 255
255 255 255 255 255 255 255 255 255 255 255 255 255   0   0   0   0   0 255 255 255 255 255 255
255 255 255 255 255   0 255 255 255 255 255 255 255 255 255 255 255 255 255 255 255   0 255 255
255 255 255
255   0 255 255 255   0 255 255 255 255 255 255 255   0 255 255 255 255 255 255 255   0 255 255
255 255 255 255 255 255 255 255 255 255 255 255 255 255 255 255 255   0 255 255 255 255 255 255
255 255 255 255 255 255 255 255 255 255 255 255 255   0 255 255 255 255 255 255 255 255 255 255
255 255 255 255 255   0 255 255 255 255 255 255 255 255 255 255 255 255 255 255 255   0 255 255
255 255 255
255   0 255 255 255   0 255 255 255 255 255 255 255   0 255 255 255 255 255 255 255   0 255 255
255 255 255 255 255 255 255 255 255 255 255 255 255 255 255 255 255   0   0   0   0   0   0   0
  0   0   0   0   0   0   0   0   0   0   0   0   0   0 255 255 255 255 255 255 255 255 255 255
255 255 255 255 255   0 255 255 255 255 255 255 255 255 255 255 255 255 255 255 255   0 255 255
255 255 255
255   0 255 255 255   0 255 255 255 255 255 255 255   0 255 255 255 255 255 255 255   0 255 255
255 255 255 255 255 255 255 255 255 255 255 255 255 255 255 255 255   0 255 255 255 255 255 255
255 255 255 255 255 255 255 255 255 255 255 255 255 255 255 255 255 255 255 255 255 255 255 255
255 255 255 255 255   0 255 255 255 255 255 255 255 255 255 255 255 255 255 255 255   0 255 255
255 255 255
255   0 255 255 255   0 255 255 255 255 255 255 255   0 255 255 255 255 255 255 255   0   0   0
  0   0   0   0   0   0   0   0   0   0   0   0   0   0   0   0   0   0 255 255 255 255 255 255
255 255 255 255 255 255 255 255 255 255 255 255 255 255 255 255 255 255 255 255 255 255 255 255
255 255 255 255 255   0 255 255 255 255 255 255 255 255 255 255 255 255 255 255 255   0 255 255
255 255 255
255   0 255 255 255   0 255 255 255 255 255 255 255   0 255 255 255 255 255 255 255   0 255 255
255 255 255 255 255 255 255 255 255 255 255 255 255 255 255 255 255 255 255 255 255 255 255 255
255 255 255 255 255 255 255 255 255 255 255 255 255 255 255 255 255 255 255 255 255 255 255 255
255 255 255 255 255   0 255 255 255 255 255 255 255 255 255 255 255 255 255 255 255   0 255 255
255 255 255
255   0 255 255 255   0 255 255 255 255 255 255 255   0   0   0   0   0   0   0   0   0 255 255
255 255 255 255 255 255 255 255 255 255 255 255 255 255 255 255 255 255 255 255 255 255 255 255
255 255 255 255 255 255 255 255 255 255 255 255 255 255 255 255 255 255 255 255 255 255 255 255
255 255 255 255 255   0 255 255 255 255 255 255 255 255 255 255 255 255 255 255 255   0 255 255
255 255 255
255   0 255 255 255   0 255 255 255 255 255 255 255 255 255 255 255 255 255 255 255   0 255 255
255 255 255 255 255 255 255 255 255 255 255 255 255 255 255 255 255 255 255 255 255 255 255 255
255 255 255 255 255 255 255 255 255 255 255 255 255 255 255 255 255 255 255 255 255 255 255 255
255 255 255 255 255   0 255 255 255 255 255 255 255 255 255 255 255 255 255 255 255   0 255 255
255 255 255
255   0 255 255 255   0 255 255 255 255 255 255 255 255 255 255 255 255 255 255 255   0   0   0
  0   0   0   0   0   0   0   0   0   0   0   0   0   0   0   0   0   0   0   0   0   0   0   0
  0   0   0   0   0   0   0   0   0   0   0   0   0   0   0   0   0   0   0   0   0   0   0   0
  0   0   0   0   0   0 255 255 255 255 255 255 255 255 255 255 255 255 255 255 255   0 255 255
255 255 255
255   0 255 255 255   0 255 255 255 255 255 255 255 255 255 255 255 255 255 255 255   0 255 255
255 255 255 255 255 255 255 255 255 255 255 255 255 255 255 255 255 255 255 255 255 255 255 255
255 255 255 255 255 255 255 255 255 255 255 255 255 255 255 255 255 255 255 255 255 255 255 255
255 255 255 255 255 255 255 255 255 255 255 255 255 255 255 255 255 255 255 255 255   0 255 255
255 255 255
255   0 255 255 255   0   0   0   0   0   0   0   0   0   0   0   0   0   0   0   0   0 255 255
255 255 255 255 255 255 255 255 255 255 255 255 255 255 255 255 255 255 255 255 255 255 255 255
255 255 255 255 255 255 255 255 255 255 255 255 255 255 255 255 255 255 255 255 255 255 255 255
255 255 255 255 255 255 255 255 255 255 255 255 255 255 255 255 255 255 255 255 255   0 255 255
255 255 255
255   0 255 255 255   0 255 255 255 255 255 255 255 255 255 255 255 255 255 255 255 255 255 255
255 255 255 255 255 255 255 255 255 255 255 255 255 255 255 255 255 255 255 255 255 255 255 255
255 255 255 255 255 255 255 255 255 255 255 255 255 255 255 255 255 255 255 255 255 255 255 255
255 255 255 255 255 255 255 255 255 255 255 255 255 255 255 255 255 255 255 255 255   0 255 255
255 255 255
255   0   0   0   0   0 255 255 255 255 255 255 255 255 255 255 255 255 255 255 255 255 255 255
255 255 255 255 255 255 255 255 255 255 255 255 255 255 255 255 255 255 255 255 255 255 255 255
255 255 255 255 255 255 255 255 255 255 255 255 255 255 255 255 255 255 255 255 255 255 255 255
255 255 255 255 255 255 255 255 255 255 255 255 255 255 255 255 255 255 255 255 255   0 255 255
255 255 255
255 255 255 255 255   0 255 255 255 255 255 255 255 255 255 255 255 255 255 255 255 255 255 255
255 255 255 255 255 255 255 255 255 255 255 255 255 255 255 255 255 255 255 255 255 255 255 255
255 255 255 255 255 255 255 255 255 255 255 255 255 255 255 255 255 255 255 255 255 255 255 255
255 255 255 255 255 255 255 255 255 255 255 255 255 255 255 255 255 255 255 255 255   0 255 255
255 255 255
255 255 255 255 255   0   0   0   0   0   0   0   0   0   0   0   0   0   0   0   0   0   0   0
  0   0   0   0   0   0   0   0   0   0   0   0   0   0   0   0   0   0   0   0   0   0   0   0
  0   0   0   0   0   0   0   0   0   0   0   0   0   0   0   0   0   0   0   0   0   0   0   0
  0   0   0   0   0   0   0   0   0   0   0   0   0   0   0   0   0   0   0   0   0   0 255 255
255 255 255
