#define maze_width 98
#define maze_height 98
static char maze_bits[] = {
 0xff,0xff,0xff,0xff,0xff,0xff,0xff,0xff,0xff,0xff,0xff,0xff,0x01,0x01,0x12,
 0x00,0x08,0x80,0x00,0x00,0x90,0x24,0x08,0x00,0x00,0x01,0x01,0x12,0x00,0x08,
 0x80,0x00,0x00,0x90,0x24,0x08,0x00,0x00,0x01,0x79,0x80,0xfc,0xcf,0xff,0xff,
 0x7f,0x1e,0x04,0x7f,0x9e,0x3c,0x01,0x09,0x80,0x20,0x00,0x12,0x00,0x49,0x00,
 0x04,0x40,0x92,0x20,0x01,0x09,0x80,0x20,0x00,0x12,0x00,0x49,0x00,0x04,0x40,
 0x92,0x20,0x01,0xf9,0x9f,0x27,0xc9,0xf3,0x3f,0x49,0xfe,0xe4,0xf9,0x93,0xff,
 0x01,0x41,0x90,0x24,0x09,0x10,0x20,0x09,0x12,0x20,0x08,0x00,0x24,0x01,0x41,
 0x90,0x24,0x09,0x10,0x20,0x09,0x12,0x20,0x08,0x00,0x24,0x01,0x47,0x9e,0x3c,
 0xf9,0xff,0x24,0xf9,0x93,0xfc,0xf9,0xf3,0x24,0x01,0x41,0x10,0x00,0x09,0x00,
 0x04,0x40,0x90,0x00,0x09,0x10,0x00,0x01,0x41,0x10,0x00,0x09,0x00,0x04,0x40,
 0x90,0x00,0x09,0x10,0x00,0x01,0x7f,0x9e,0xff,0x79,0xfe,0xff,0xc9,0xf3,0xfc,
 0xff,0xff,0x3c,0x01,0x01,0x00,0x04,0x40,0x00,0x24,0x08,0x10,0x20,0x00,0x02,
 0x04,0x01,0x01,0x00,0x04,0x40,0x00,0x24,0x08,0x10,0x20,0x00,0x02,0x04,0x01,
 0x7f,0xfe,0x3f,0xff,0xf3,0xe7,0x79,0x9e,0x27,0x49,0xf2,0x27,0x01,0x49,0x02,
 0x04,0x00,0x02,0x00,0x09,0x82,0x20,0x49,0x80,0x20,0x01,0x49,0x02,0x04,0x00,
 0x02,0x00,0x09,0x82,0x20,0x49,0x80,0x20,0x01,0xc9,0xf3,0xe7,0xff,0xf3,0xff,
 0x4f,0xf2,0x3c,0xcf,0xf3,0xfc,0x01,0x41,0x82,0x20,0x01,0x80,0x00,0x40,0x80,
 0x20,0x48,0x80,0x04,0x01,0x41,0x82,0x20,0x01,0x80,0x00,0x40,0x80,0x20,0x48,
 0x80,0x04,0x01,0x47,0xf2,0x3c,0x7f,0x92,0xfc,0xcf,0xf3,0x3c,0xcf,0xf3,0xe7,
 0x01,0x41,0x12,0x00,0x40,0x92,0x00,0x48,0x10,0x00,0x08,0x12,0x04,0x01,0x41,
 0x12,0x00,0x40,0x92,0x00,0x48,0x10,0x00,0x08,0x12,0x04,0x01,0x49,0x92,0x24,
 0x4f,0xfe,0xe7,0x4f,0x9e,0xe7,0xcf,0xff,0xe4,0x01,0x49,0x80,0x24,0x41,0x10,
 0x04,0x48,0x02,0x24,0x09,0x00,0x00,0x01,0x49,0x80,0x24,0x41,0x10,0x04,0x48,
 0x02,0x24,0x09,0x00,0x00,0x01,0x4f,0xf2,0xfc,0xcf,0x93,0x3c,0xf9,0xff,0x24,
 0xc9,0xff,0xff,0x01,0x01,0x82,0x04,0x40,0x80,0x20,0x49,0x10,0x24,0x40,0x00,
 0x24,0x01,0x01,0x82,0x04,0x40,0x80,0x20,0x49,0x10,0x24,0x40,0x00,0x24,0x01,
 0xff,0xf3,0x3f,0x79,0xfe,0xfc,0x4f,0xfe,0x3c,0xff,0x93,0x27,0x01,0x01,0x12,
 0x24,0x01,0x02,0x20,0x00,0x02,0x20,0x49,0x12,0x24,0x01,0x01,0x12,0x24,0x01,
 0x02,0x20,0x00,0x02,0x20,0x49,0x12,0x24,0x01,0xc9,0xff,0x24,0xff,0xf3,0x3f,
 0x49,0xf2,0xfc,0x49,0xf2,0x27,0x01,0x09,0x10,0x24,0x09,0x00,0x04,0x49,0x92,
 0x04,0x41,0x10,0x00,0x01,0x09,0x10,0x24,0x09,0x00,0x04,0x49,0x92,0x04,0x41,
 0x10,0x00,0x01,0x4f,0x9e,0x24,0x79,0x9e,0xff,0xcf,0x9f,0x3c,0xcf,0xf3,0x3f,
 0x01,0x41,0x92,0x00,0x40,0x02,0x00,0x41,0x02,0x20,0x00,0x02,0x04,0x01,0x41,
 0x92,0x00,0x40,0x02,0x00,0x41,0x02,0x20,0x00,0x02,0x04,0x01,0xc7,0x93,0x3f,
 0xff,0x93,0x3f,0x49,0x9e,0x3f,0xc9,0xff,0x3c,0x01,0x01,0x82,0x20,0x01,0x12,
 0x04,0x48,0x80,0x24,0x09,0x02,0x24,0x01,0x01,0x82,0x20,0x01,0x12,0x04,0x48,
 0x80,0x24,0x09,0x02,0x24,0x01,0xf9,0x9f,0x3c,0xf9,0xff,0x3f,0xff,0x9f,0xe4,
 0x7f,0xf2,0x27,0x01,0x01,0x82,0x00,0x40,0x10,0x04,0x00,0x02,0x20,0x49,0x80,
 0x00,0x01,0x01,0x82,0x00,0x40,0x10,0x04,0x00,0x02,0x20,0x49,0x80,0x00,0x01,
 0x7f,0xfe,0xe7,0x4f,0xfe,0xfc,0xf9,0x9f,0x3c,0xc9,0xf3,0x3c,0x01,0x01,0x02,
 0x04,0x01,0x02,0x20,0x08,0x90,0x04,0x48,0x92,0x04,0x01,0x01,0x02,0x04,0x01,
 0x02,0x20,0x08,0x90,0x04,0x48,0x92,0x04,0x01,0xcf,0x9f,0xe7,0x79,0x9e,0xe4,
 0x7f,0x9e,0xe7,0x4f,0x92,0xfc,0x01,0x09,0x02,0x04,0x49,0x90,0x04,0x48,0x90,
 0x00,0x40,0x00,0x20,0x01,0x09,0x02,0x04,0x49,0x90,0x04,0x48,0x90,0x00,0x40,
 0x00,0x20,0x01,0x79,0x9e,0x24,0x49,0x92,0x3f,0xcf,0x93,0xff,0xcf,0xf3,0x24,
 0x01,0x01,0x80,0x20,0x41,0x82,0x04,0x08,0x80,0x20,0x40,0x80,0x04,0x01,0x01,
 0x80,0x20,0x41,0x82,0x04,0x08,0x80,0x20,0x40,0x80,0x04,0x01,0xc7,0x9f,0x3f,
 0xf9,0xf3,0x3c,0xcf,0xf3,0x24,0x4f,0xfe,0x3f,0x01,0x01,0x10,0x20,0x41,0x00,
 0x24,0x08,0x12,0x04,0x08,0x82,0x20,0x01,0x01,0x10,0x20,0x41,0x00,0x24,0x08,
 0x12,0x04,0x08,0x82,0x20,0x01,0x47,0xf2,0xe4,0x4f,0x9e,0x27,0x79,0xf2,0x3f,
 0xc9,0xf3,0x27,0x01,0x41,0x12,0x04,0x48,0x10,0x24,0x09,0x02,0x24,0x49,0x90,
 0x20,0x01,0x41,0x12,0x04,0x48,0x10,0x24,0x09,0x02,0x24,0x49,0x90,0x20,0x01,
 0x47,0xfe,0xfc,0xf9,0xf3,0x24,0xff,0xf3,0x24,0xff,0x93,0x3c,0x01,0x41,0x82,
 0x04,0x40,0x82,0x24,0x40,0x82,0x24,0x40,0x10,0x04,0x01,0x41,0x82,0x04,0x40,
 0x82,0x24,0x40,0x82,0x24,0x40,0x10,0x04,0x01,0x7f,0x9e,0xe4,0x79,0xf2,0xe4,
 0x79,0xf2,0x27,0x49,0xfe,0x24,0x01,0x41,0x02,0x04,0x41,0x82,0x04,0x48,0x80,
 0x04,0x09,0x10,0x20,0x01,0x41,0x02,0x04,0x41,0x82,0x04,0x48,0x80,0x04,0x09,
 0x10,0x20,0x01,0xc9,0xff,0x27,0x7f,0xfe,0xe7,0x49,0xf2,0x3c,0xff,0xf3,0x3f,
 0x01,0x49,0x10,0x20,0x09,0x10,0x00,0x09,0x02,0x00,0x40,0x00,0x20,0x01,0x49,
 0x10,0x20,0x09,0x10,0x00,0x09,0x02,0x00,0x40,0x00,0x20,0x01,0x49,0x9e,0x24,
 0x79,0xfe,0x24,0x79,0xfe,0x3f,0xcf,0x93,0xfc,0x01,0x09,0x90,0x24,0x41,0x90,
 0x24,0x41,0x12,0x24,0x49,0x90,0x04,0x01,0x09,0x90,0x24,0x41,0x90,0x24,0x41,
 0x12,0x24,0x49,0x90,0x04,0x01,0xcf,0xf3,0x24,0xf9,0x93,0xe4,0x49,0x92,0xe7,
 0x49,0xfe,0x24,0x01,0x41,0x02,0x24,0x40,0x10,0x24,0x48,0x82,0x20,0x48,0x10,
 0x20,0x01,0x41,0x02,0x24,0x40,0x10,0x24,0x48,0x82,0x20,0x48,0x10,0x20,0x01,
 0x79,0xf2,0x24,0x79,0xfe,0x24,0xcf,0x93,0x3c,0x4f,0x9e,0xff,0x01,0x41,0x80,
 0x24,0x09,0x90,0x24,0x48,0x12,0x20,0x41,0x12,0x04,0x01,0x41,0x80,0x24,0x09,
 0x90,0x24,0x48,0x12,0x20,0x41,0x12,0x04,0x01,0xc9,0x9f,0xe4,0x4f,0x92,0xff,
 0x7f,0xfe,0x27,0xc9,0xf3,0x3c,0x01,0x49,0x82,0x04,0x40,0x92,0x00,0x40,0x00,
 0x00,0x09,0x82,0x04,0x01,0x49,0x82,0x04,0x40,0x92,0x00,0x40,0x00,0x00,0x09,
 0x82,0x04,0x01,0x79,0x92,0xff,0x79,0x9e,0xfc,0x4f,0xf2,0x24,0x79,0xf2,0xe7,
 0x01,0x41,0x92,0x20,0x40,0x82,0x04,0x08,0x82,0x24,0x40,0x12,0x04,0x01,0x41,
 0x92,0x20,0x40,0x82,0x04,0x08,0x82,0x24,0x40,0x12,0x04,0x01,0x79,0xfe,0xe7,
 0x49,0xf2,0xff,0xf9,0xff,0xe7,0xff,0x93,0x3f,0x01,0x01,0x92,0x24,0x49,0x00,
 0x04,0x01,0x00,0x20,0x40,0x02,0x00,0x01,0x01,0x92,0x24,0x49,0x00,0x04,0x01,
 0x00,0x20,0x40,0x02,0x00,0x01,0x79,0x92,0x24,0x7f,0x9e,0x24,0x4f,0x9e,0x3c,
 0x49,0xfe,0xe4,0x01,0x41,0x02,0x24,0x00,0x82,0x20,0x41,0x82,0x00,0x09,0x10,
 0x04,0x01,0x41,0x02,0x24,0x00,0x82,0x20,0x41,0x82,0x00,0x09,0x10,0x04,0x01,
 0xf9,0x9f,0x27,0x79,0xfe,0x24,0x4f,0xfe,0x3f,0xc9,0xff,0x27,0x01,0x41,0x00,
 0x20,0x41,0x92,0x24,0x49,0x80,0x00,0x09,0x00,0x24,0x01,0x41,0x00,0x20,0x41,
 0x92,0x24,0x49,0x80,0x00,0x09,0x00,0x24,0x01,0xc7,0x93,0x27,0xcf,0x93,0xe4,
 0xc9,0xf3,0xff,0x79,0xfe,0xe4,0x01,0x01,0x92,0x00,0x08,0x02,0x24,0x00,0x02,
 0x04,0x08,0x80,0x00,0x01,0x01,0x92,0x00,0x08,0x02,0x24,0x00,0x02,0x04,0x08,
 0x80,0x00,0x01,0xff,0xff,0xff,0xff,0xff,0xff,0xff,0xff,0xff,0xff,0xff,0xff,
 0x00,0x00,0x00,0x00,0x00,0x00,0x00,0x00,0x00,0x00,0x00,0x00,0x00,0x00};
